{"glyphs":{"\r":{"ha":1389,"x_min":0,"x_max":0,"o":""},"+":{"ha":1082,"x_min":12,"x_max":1070,"o":"m 107 806 l 308 806 q 361 729 323 760 q 446 693 399 699 l 446 1145 q 474 1212 446 1184 q 541 1240 502 1240 q 608 1212 581 1240 q 636 1145 636 1184 l 636 806 l 975 806 q 1042 778 1015 806 q 1070 711 1070 750 q 1043 644 1070 671 q 975 616 1015 616 l 636 616 l 636 277 q 608 210 636 237 q 541 182 581 182 q 474 210 502 182 q 446 277 446 237 l 446 616 l 107 616 q 40 644 68 616 q 12 711 12 671 q 40 778 12 750 q 107 806 68 806 z "},"-":{"ha":1089,"x_min":82,"x_max":1007,"o":"m 176 806 l 913 806 q 980 778 953 806 q 1007 711 1007 750 q 979 644 1007 671 q 913 616 951 616 l 176 616 q 110 644 138 616 q 82 711 82 671 q 110 778 82 750 q 176 806 138 806 z "},"<":{"ha":796,"x_min":9,"x_max":715,"o":"m 9 711 l 83 784 l 502 1203 q 590 1240 538 1240 q 678 1203 642 1240 q 715 1115 715 1166 q 678 1027 715 1063 l 260 610 q 363 582 308 583 q 468 605 419 581 l 678 395 q 715 307 715 358 q 678 218 715 255 q 590 182 642 182 q 503 217 540 182 l 9 711 z "},">":{"ha":796,"x_min":81,"x_max":787,"o":"m 206 182 q 118 218 155 182 q 81 307 81 255 q 118 395 81 358 l 328 605 q 433 582 377 581 q 536 610 488 583 l 118 1027 q 81 1115 81 1063 q 118 1203 81 1166 q 206 1240 155 1240 q 294 1203 258 1240 l 713 784 l 787 711 l 293 217 q 206 182 256 182 z "},"A":{"ha":1053,"x_min":47,"x_max":1040,"o":"m 47 1027 q 106 1061 82 1036 l 115 1069 l 70 1114 q 79 1124 77 1122 l 136 1181 q 199 1207 162 1207 q 261 1181 237 1207 l 428 1015 q 454 952 454 989 q 428 891 454 916 l 371 833 q 333 811 355 818 q 458 626 378 707 q 644 500 539 545 q 665 538 649 522 l 722 595 q 785 621 748 621 q 847 595 823 621 l 1014 429 q 1040 366 1040 403 q 1014 304 1040 330 l 957 247 q 946 237 954 244 l 890 294 l 881 285 q 844 214 852 255 q 543 282 686 220 q 288 456 401 345 q 112 717 174 570 q 47 1027 50 864 z "},"B":{"ha":1164,"x_min":53,"x_max":1111,"o":"m 53 519 q 53 522 53 521 q 53 524 53 522 q 125 788 54 667 q 317 979 195 909 q 582 1050 438 1050 q 847 979 726 1050 q 1039 788 968 909 q 1111 524 1109 667 q 1111 522 1111 522 q 1111 519 1111 521 l 1109 519 q 1089 475 1108 494 q 1044 457 1070 457 l 747 457 l 747 458 l 951 718 q 975 785 975 748 q 975 792 975 789 q 943 860 972 833 q 879 882 916 882 q 873 882 876 882 q 802 852 831 880 l 563 617 q 460 565 502 610 q 416 457 418 519 l 119 457 q 75 475 94 457 q 54 519 56 494 l 53 519 m 311 581 l 323 666 l 189 684 l 178 598 l 311 581 m 362 746 l 423 806 l 328 901 l 267 841 l 362 746 m 500 454 q 524 511 500 487 q 581 536 547 534 q 803 755 652 606 q 830 768 815 766 q 855 760 845 769 q 865 736 865 751 q 854 709 865 722 q 793 631 826 673 q 722 541 761 590 q 662 464 684 492 q 663 459 662 463 q 663 454 663 456 q 640 396 663 420 q 582 372 616 372 q 524 396 548 372 q 500 454 500 420 m 625 854 l 625 989 l 538 989 l 538 854 l 625 854 z "},"C":{"ha":1227,"x_min":85,"x_max":1143,"o":"m 85 247 l 85 1108 q 104 1154 85 1135 q 151 1173 123 1173 l 231 1173 l 231 1021 q 267 936 231 971 q 352 901 302 901 q 437 936 402 901 q 471 1021 471 971 l 471 1173 l 756 1173 l 756 1021 q 791 936 756 971 q 876 901 825 901 q 961 936 926 901 q 996 1021 996 971 l 996 1173 l 1076 1173 q 1124 1154 1105 1173 q 1143 1108 1143 1135 l 1143 347 q 1078 231 1132 278 q 951 182 1023 183 l 150 182 q 104 201 123 182 q 85 247 85 221 m 264 358 l 553 358 l 553 448 l 417 448 l 417 449 l 455 479 q 546 629 546 553 q 507 722 546 688 q 402 755 469 755 q 267 715 322 755 l 296 637 q 380 669 340 669 q 424 656 409 669 q 439 620 439 643 q 410 560 437 593 q 318 472 383 528 l 264 425 l 264 358 m 298 1185 q 313 1224 298 1208 q 351 1240 329 1240 q 390 1224 374 1240 q 406 1185 406 1208 l 406 1021 q 390 983 406 998 q 351 967 374 967 q 313 983 329 967 q 298 1021 298 998 l 298 1185 m 673 661 l 847 661 l 847 659 l 690 358 l 805 358 l 962 682 l 962 749 l 673 749 l 673 661 m 821 1021 l 821 1185 q 838 1224 821 1208 q 876 1240 854 1240 q 914 1224 899 1240 q 930 1185 930 1208 l 930 1021 q 914 983 930 998 q 876 967 899 967 q 838 983 854 967 q 821 1021 821 998 z "},"D":{"ha":1223,"x_min":52,"x_max":1137,"o":"m 106 503 l 271 503 q 309 487 293 503 q 324 449 324 471 q 309 411 324 427 q 271 395 293 395 l 106 395 q 68 411 84 395 q 52 449 52 427 q 68 487 52 471 q 106 503 84 503 m 106 1027 l 271 1027 q 309 1010 293 1027 q 324 972 324 994 q 309 935 324 951 q 271 918 293 918 l 106 918 q 68 935 84 918 q 52 972 52 951 q 68 1010 52 994 q 106 1027 84 1027 m 210 328 l 271 328 q 355 363 320 328 q 391 449 391 399 q 355 534 391 499 q 271 570 320 570 l 210 570 l 210 853 l 271 853 q 355 888 320 853 q 391 972 391 922 q 355 1058 391 1023 q 271 1093 320 1093 l 210 1093 l 210 1173 q 230 1220 210 1200 q 277 1240 250 1240 l 1070 1240 q 1117 1220 1097 1240 q 1137 1173 1137 1200 l 1137 248 q 1117 201 1137 221 q 1070 182 1097 182 l 277 182 q 230 201 250 182 q 210 248 210 221 l 210 328 m 845 498 l 845 597 l 507 597 l 507 498 l 845 498 m 971 745 l 971 845 l 507 845 l 507 745 l 971 745 m 971 993 l 971 1093 l 507 1093 l 507 993 l 971 993 z "},"E":{"ha":1210,"x_min":43,"x_max":1166,"o":"m 43 743 q 63 791 43 772 q 110 810 83 810 l 187 810 q 239 936 203 878 l 184 990 q 165 1038 165 1010 q 184 1084 165 1065 l 232 1131 q 278 1150 251 1150 q 326 1131 305 1150 l 380 1077 q 506 1128 438 1112 l 506 1206 q 526 1253 506 1233 q 572 1272 545 1272 l 637 1272 q 684 1253 665 1272 q 704 1206 704 1233 l 704 1128 q 830 1077 770 1112 l 884 1131 q 932 1150 905 1150 q 978 1131 959 1150 l 1025 1084 q 1044 1038 1044 1065 q 1025 990 1044 1010 l 971 936 q 1023 810 1006 878 l 1100 810 q 1147 790 1127 810 q 1166 743 1166 770 l 1166 678 q 1147 631 1166 650 q 1100 612 1127 612 l 1023 612 q 971 486 1006 545 l 1025 431 q 1044 384 1044 411 q 1025 338 1044 357 l 978 290 q 932 271 959 271 q 884 290 905 271 l 830 345 q 704 293 770 309 l 704 216 q 684 169 704 189 q 637 149 665 149 l 572 149 q 526 169 545 149 q 506 216 506 189 l 506 293 q 380 345 438 309 l 326 290 q 278 271 305 271 q 232 290 251 271 l 184 338 q 165 384 165 357 q 184 431 165 411 l 239 486 q 187 612 203 544 l 110 612 q 63 631 83 612 q 43 678 43 651 l 43 743 m 511 617 q 605 578 551 578 q 699 617 659 578 q 738 711 738 656 q 699 804 738 765 q 605 844 659 844 q 511 804 551 844 q 472 711 472 765 q 511 617 472 656 z "},"F":{"ha":1133,"x_min":85,"x_max":1075,"o":"m 85 803 l 85 867 l 85 1112 q 103 1156 85 1138 q 147 1173 121 1173 l 580 1173 q 629 1156 606 1173 q 659 1114 652 1139 l 694 990 l 333 990 q 195 929 250 990 l 1013 929 q 1057 911 1038 929 q 1075 867 1075 892 l 1075 309 q 1057 267 1075 285 q 1013 248 1038 248 l 147 248 q 103 267 121 248 q 85 309 85 285 l 85 803 z "},"G":{"ha":1061,"x_min":39,"x_max":1035,"o":"m 46 1114 q 39 1149 39 1131 q 46 1183 39 1166 q 96 1233 61 1218 l 130 1240 q 165 1233 148 1240 q 214 1184 199 1218 l 235 1135 q 361 1158 296 1158 q 605 1107 445 1158 q 830 1059 757 1059 q 983 1104 914 1059 q 1018 1104 1001 1114 q 1035 1076 1035 1095 l 1035 675 q 1023 650 1035 661 q 738 551 903 551 q 600 560 690 551 l 518 755 q 448 840 495 808 q 343 875 400 872 q 344 872 343 873 q 345 871 345 871 l 581 304 q 586 272 586 288 q 578 235 586 253 q 530 189 564 202 q 495 182 514 182 q 445 197 468 182 q 411 237 422 212 l 46 1114 l 46 1114 z "},"H":{"ha":1085,"x_min":38,"x_max":1047,"o":"m 38 987 q 112 1166 38 1092 q 290 1240 186 1240 q 465 1168 391 1240 l 389 1058 l 361 1017 q 328 914 328 968 q 328 910 328 912 q 363 807 330 853 l 591 1137 l 593 1137 q 680 1212 627 1184 q 795 1240 734 1240 q 973 1166 899 1240 q 1047 987 1047 1092 q 994 834 1047 903 l 849 624 l 543 182 l 236 624 l 85 841 q 38 987 38 907 z "},"I":{"ha":1100,"x_min":18,"x_max":1076,"o":"m 21 532 q 18 549 18 540 q 40 591 18 570 l 664 1215 q 726 1240 688 1240 q 787 1215 763 1240 l 964 1039 q 909 1002 930 1023 q 703 796 904 997 q 644 675 654 745 q 641 638 641 656 q 663 544 641 589 q 665 545 665 545 l 1015 897 q 1057 913 1033 913 q 1072 911 1064 913 q 1076 890 1076 895 q 1050 827 1076 853 l 428 203 q 383 182 405 182 q 353 195 366 182 q 340 237 340 210 q 340 243 340 240 l 357 498 q 353 515 359 509 q 336 521 347 521 l 79 505 l 78 505 q 21 532 33 505 z "},"J":{"ha":1247,"x_min":52,"x_max":1213,"o":"m 52 665 q 139 876 52 788 q 349 963 227 963 q 380 962 365 963 q 496 1099 418 1047 q 670 1152 575 1152 q 894 1059 800 1152 q 987 834 987 966 q 986 812 987 823 q 990 812 988 812 q 1146 748 1081 812 q 1213 589 1213 682 q 1147 432 1213 498 q 990 366 1082 366 l 787 366 q 781 374 785 368 q 774 382 777 380 l 522 635 q 401 682 473 682 q 281 635 330 682 l 121 475 q 52 665 52 559 m 235 180 l 401 347 l 568 180 q 620 160 590 160 q 671 181 650 160 q 692 232 692 202 q 671 283 692 262 l 453 502 q 401 522 431 522 q 350 502 372 522 l 132 283 q 111 232 111 262 q 132 181 111 202 q 184 160 153 160 q 235 180 214 160 z "},"K":{"ha":911,"x_min":58,"x_max":853,"o":"m 58 783 q 78 829 58 810 q 125 849 98 849 l 224 849 l 224 1015 q 292 1177 224 1109 q 455 1245 359 1245 q 619 1177 551 1245 q 688 1015 688 1109 l 562 1015 q 530 1088 562 1058 q 456 1119 499 1119 q 381 1088 412 1119 q 350 1015 350 1058 l 350 849 l 787 849 q 833 829 814 849 q 853 783 853 810 l 853 254 q 833 207 853 227 q 787 187 814 187 l 125 187 q 78 207 98 187 q 58 254 58 227 l 58 783 m 522 363 l 522 495 l 389 495 l 389 363 l 522 363 z "},"L":{"ha":1111,"x_min":26,"x_max":1084,"o":"m 421 250 l 569 397 l 550 416 q 470 449 516 449 q 390 418 424 449 l 321 349 q 258 323 295 323 q 194 349 220 323 q 168 413 168 376 q 193 477 168 450 l 360 643 l 260 742 l 94 576 q 26 413 26 509 q 94 250 26 317 q 258 182 162 182 q 421 250 353 182 m 281 901 l 448 732 l 534 817 l 366 985 l 281 901 m 542 1024 l 690 1172 q 853 1240 758 1240 q 1017 1172 949 1240 q 1084 1008 1084 1104 q 1017 845 1084 913 l 851 680 l 751 779 l 918 944 q 943 1008 943 971 q 917 1072 943 1046 q 853 1099 890 1099 q 790 1073 816 1099 l 720 1004 q 641 972 687 972 q 561 1005 595 972 l 542 1024 m 577 605 l 745 437 l 829 521 l 661 689 l 577 605 z "},"M":{"ha":1192,"x_min":66,"x_max":1124,"o":"m 66 929 q 98 985 66 964 l 96 986 l 106 990 q 107 990 107 990 l 156 1016 l 189 1032 l 327 1101 l 536 1207 q 595 1219 560 1219 q 654 1207 629 1219 l 1035 1016 l 1084 990 q 1085 990 1085 990 l 1093 986 l 1092 985 q 1124 929 1124 964 l 1124 269 q 1105 222 1124 241 q 1058 202 1085 202 l 133 202 q 85 222 104 202 q 66 269 66 241 l 66 929 m 114 807 q 155 745 114 765 l 362 636 l 197 357 q 201 335 189 345 q 210 332 205 332 q 222 338 218 332 l 450 590 l 544 541 q 595 529 567 529 q 647 541 624 529 l 734 586 l 958 338 q 970 332 963 332 q 979 335 975 332 q 985 357 991 345 l 821 632 l 1036 745 q 1077 807 1077 765 q 1066 844 1077 826 l 123 844 q 114 807 114 826 z "},"N":{"ha":552,"x_min":9,"x_max":471,"o":"m 9 844 q 28 890 9 871 q 75 910 48 910 l 248 910 l 471 1108 l 471 313 l 248 511 l 248 692 q 162 631 196 675 q 128 532 128 587 l 128 511 l 75 511 q 28 531 48 511 q 9 578 9 551 l 9 844 z "},"O":{"ha":959,"x_min":33,"x_max":903,"o":"m 33 578 l 33 844 q 52 890 33 871 q 99 910 72 910 l 271 910 l 495 1108 l 495 313 l 271 511 l 271 692 q 186 631 220 675 q 152 532 152 587 l 152 511 l 99 511 q 52 531 72 511 q 33 578 33 551 m 637 530 q 718 724 718 610 q 637 917 718 837 q 603 930 624 930 q 568 916 582 930 q 553 882 553 902 q 568 846 553 861 q 618 723 618 795 q 568 601 618 651 q 553 566 553 586 q 568 530 553 545 q 603 515 582 515 q 637 530 624 515 m 769 400 q 903 724 903 534 q 769 1046 903 913 q 734 1061 755 1061 q 699 1046 713 1061 q 685 1010 685 1031 q 700 975 685 990 q 804 723 804 871 q 700 471 804 575 q 685 435 685 456 q 699 401 685 415 q 734 387 713 387 q 769 400 755 387 z "},"P":{"ha":1146,"x_min":27,"x_max":1082,"o":"m 27 590 l 27 856 q 47 903 27 883 q 94 922 66 922 l 266 922 l 490 1122 l 490 326 l 266 524 l 266 704 q 180 644 214 688 q 146 544 146 600 l 146 524 l 94 524 q 47 543 66 524 q 27 590 27 563 m 632 518 q 597 503 618 503 q 562 517 576 503 q 548 553 548 532 q 563 587 548 574 q 613 711 613 639 q 563 834 613 783 q 548 869 548 848 q 562 904 548 890 q 597 918 576 918 q 632 903 618 918 q 712 711 712 823 q 632 518 712 598 m 764 388 q 729 373 750 373 q 694 388 708 373 q 680 423 680 403 q 694 458 680 444 q 799 711 799 563 q 694 963 799 859 q 680 998 680 978 q 694 1034 680 1019 q 729 1048 708 1048 q 764 1034 750 1048 q 898 711 898 899 q 764 388 898 522 m 894 258 q 859 244 880 244 q 824 258 838 244 q 810 293 810 273 q 825 328 810 313 q 942 503 901 404 q 983 711 983 602 q 942 918 983 819 q 825 1093 901 1016 q 810 1128 810 1108 q 824 1163 810 1149 q 859 1177 838 1177 q 894 1164 880 1177 q 1034 956 985 1073 q 1082 711 1082 840 q 1034 465 1082 582 q 894 258 985 349 z "},"Q":{"ha":1098,"x_min":77,"x_max":1026,"o":"m 77 1153 q 96 1199 77 1180 q 141 1218 115 1218 q 186 1199 168 1218 q 205 1153 205 1180 l 205 369 l 205 357 q 210 345 205 350 q 222 339 215 339 l 1026 339 q 968 242 1015 281 q 862 203 922 203 l 245 203 q 131 248 180 203 q 77 358 82 293 l 77 1153 m 314 677 q 338 734 314 711 q 395 758 361 758 q 453 734 429 758 q 477 677 477 711 l 477 507 q 453 450 477 475 q 395 426 429 426 q 338 450 361 426 q 314 507 314 475 l 314 677 m 589 873 q 613 931 589 907 q 671 955 637 955 q 728 931 705 955 q 752 873 752 907 l 752 507 q 728 450 752 475 q 671 426 705 426 q 613 450 637 426 q 589 507 589 475 l 589 873 m 863 507 l 863 1137 q 887 1194 863 1171 q 945 1218 911 1218 q 1002 1194 979 1218 q 1026 1137 1026 1171 l 1026 507 q 1002 450 1026 475 q 945 426 979 426 q 887 450 911 426 q 863 507 863 475 z "},"R":{"ha":972,"x_min":40,"x_max":931,"o":"m 41 608 q 40 629 40 618 q 90 833 40 738 q 244 1002 145 937 q 464 1072 343 1066 l 439 1095 q 415 1155 415 1120 q 440 1215 415 1190 q 500 1240 465 1240 q 560 1215 534 1240 l 727 1048 q 727 1047 727 1047 q 753 987 753 1023 q 727 928 753 952 q 727 926 727 926 l 560 760 q 500 735 534 735 q 440 760 465 735 q 415 820 415 785 q 439 880 415 854 l 460 899 q 279 807 351 890 q 210 627 210 729 q 210 616 210 621 q 300 425 216 502 q 484 352 379 352 q 497 352 490 352 q 688 441 610 357 q 761 627 761 520 q 761 639 761 633 l 761 850 q 880 791 831 844 q 930 667 929 739 l 930 642 q 930 621 930 631 q 880 419 931 514 q 725 251 825 315 q 505 182 625 187 q 486 182 495 182 q 178 305 308 182 q 41 608 49 429 z "},"S":{"ha":1171,"x_min":60,"x_max":1110,"o":"m 60 247 l 60 711 l 531 572 l 531 452 l 640 452 l 640 572 l 1110 711 l 1110 247 q 1090 201 1110 220 q 1045 182 1071 182 l 125 182 q 80 201 100 182 q 60 247 60 220 m 60 772 l 60 903 q 80 949 60 930 q 125 968 100 968 l 296 968 l 296 1115 q 333 1203 296 1166 q 421 1240 370 1240 l 749 1240 q 838 1203 801 1240 q 874 1115 874 1166 l 874 968 l 1045 968 q 1090 949 1071 968 q 1110 903 1110 930 l 1110 772 l 585 618 l 60 772 m 414 968 l 756 968 l 756 1115 q 749 1122 756 1122 l 421 1122 q 414 1115 414 1122 l 414 968 z "},"T":{"ha":1162,"x_min":61,"x_max":1119,"o":"m 61 579 l 61 1175 q 81 1221 61 1202 q 127 1241 100 1241 l 1053 1241 q 1099 1221 1080 1241 q 1119 1175 1119 1202 l 1119 595 l 1119 506 q 1099 459 1119 479 q 1053 439 1080 439 l 648 439 l 419 210 q 366 180 389 180 q 353 182 359 180 q 326 248 326 194 l 326 636 q 230 564 267 614 q 193 450 193 513 l 193 439 l 127 439 q 81 459 100 439 q 61 506 61 479 l 61 579 z "},"V":{"ha":1146,"x_min":44,"x_max":1102,"o":"m 44 711 q 255 937 112 852 q 572 1021 398 1021 q 890 937 747 1021 q 1102 711 1034 852 q 890 485 1034 570 q 572 400 747 400 q 255 485 398 400 q 44 711 112 570 m 771 711 q 739 821 771 770 l 608 689 q 606 688 607 689 q 588 766 588 724 q 590 796 588 781 q 638 897 599 854 q 640 897 638 897 q 573 909 604 909 q 433 851 490 909 q 375 711 375 793 q 433 570 375 628 q 573 513 490 513 q 713 570 656 513 q 771 711 771 628 z "},"X":{"ha":1141,"x_min":14,"x_max":1116,"o":"m 56 564 q 14 666 14 606 q 56 768 14 726 q 158 810 98 810 q 261 768 218 810 l 399 629 l 401 629 l 531 498 q 546 568 546 532 q 543 600 546 584 q 494 693 534 654 l 479 708 l 581 811 l 869 1099 q 971 1141 911 1141 q 1074 1099 1031 1141 q 1116 997 1116 1057 q 1074 894 1116 937 l 503 323 q 400 281 460 281 q 296 323 340 281 l 56 564 l 56 564 z "},"Y":{"ha":1137,"x_min":36,"x_max":1095,"o":"m 36 1095 q 64 1164 36 1135 q 132 1192 93 1192 l 212 1192 l 212 1162 q 247 1037 212 1095 q 340 947 281 979 l 340 608 l 132 608 q 64 636 93 608 q 36 704 36 665 l 36 1095 m 149 716 q 197 696 169 696 q 245 716 226 696 q 265 764 265 736 q 245 812 265 792 q 197 833 226 833 q 149 812 169 833 q 130 764 130 792 q 149 716 130 736 m 406 731 l 406 1010 q 459 1138 406 1085 q 587 1192 512 1191 l 813 1192 q 950 1141 886 1192 q 1030 1016 1014 1089 l 1090 726 q 1095 688 1095 706 q 1063 602 1095 640 q 947 549 1021 549 l 748 551 l 775 427 q 779 392 779 410 q 755 311 779 349 q 659 244 721 258 l 595 229 l 541 468 q 462 601 524 547 l 462 602 q 406 731 406 655 z "},"a":{"ha":1057,"x_min":37,"x_max":1022,"o":"m 676 292 q 411 182 566 182 q 146 292 256 182 q 37 557 37 401 q 146 822 37 712 l 158 833 l 406 1082 l 485 1160 q 677 1240 565 1240 q 870 1160 790 1240 q 950 968 950 1081 q 870 776 950 854 l 820 726 l 820 724 q 819 723 820 723 l 532 437 q 413 387 484 387 q 293 437 342 387 q 243 559 243 488 q 292 677 243 627 l 539 924 q 587 944 559 944 q 635 924 615 944 q 654 877 654 905 q 634 829 654 849 l 387 582 q 376 557 376 572 q 387 532 376 543 q 413 521 398 521 q 437 532 428 521 l 462 556 q 463 557 463 557 l 775 869 q 816 968 816 910 q 775 1065 816 1025 q 677 1105 734 1105 q 580 1066 621 1105 l 501 987 l 252 738 l 241 727 q 170 557 170 656 q 241 387 170 457 q 411 316 311 316 q 581 385 511 316 l 759 563 l 794 598 q 904 654 840 644 q 938 657 921 657 q 1022 637 983 657 l 676 292 l 676 292 z "},"b":{"ha":745,"x_min":17,"x_max":728,"o":"m 39 1038 q 205 1213 85 1160 q 332 1240 269 1240 q 446 1219 389 1240 q 620 1053 567 1172 q 648 926 648 990 q 625 812 648 869 q 459 637 578 690 q 333 610 396 610 q 219 632 277 610 q 45 798 98 680 q 17 925 17 861 q 39 1038 17 981 m 377 525 q 496 553 441 529 q 498 554 496 553 l 499 555 q 545 564 522 564 q 587 556 566 564 q 652 498 631 540 l 718 351 q 728 302 728 327 q 720 258 728 280 q 656 191 703 212 q 608 181 633 181 l 564 190 q 498 254 518 208 l 377 525 z "},"c":{"ha":1158,"x_min":50,"x_max":1108,"o":"m 121 977 q 313 1169 191 1099 q 579 1240 435 1240 q 845 1169 723 1240 q 1038 977 967 1099 q 1108 711 1108 854 q 1038 445 1108 567 q 845 252 967 323 q 579 182 723 182 q 313 252 435 182 q 121 445 191 323 q 50 711 50 567 q 121 977 50 854 m 513 712 q 532 665 513 685 q 579 646 552 646 q 626 665 606 646 q 646 712 646 685 l 646 1108 q 626 1154 646 1135 q 579 1173 606 1173 q 532 1154 552 1173 q 513 1108 513 1135 l 513 712 m 678 777 q 758 644 686 697 l 910 644 q 957 664 937 644 q 977 711 977 684 q 957 758 977 738 q 910 777 937 777 l 678 777 z "},"d":{"ha":1076,"x_min":64,"x_max":1008,"o":"m 64 368 l 64 1181 q 81 1223 64 1206 q 123 1240 98 1240 l 820 1240 q 861 1223 844 1240 q 878 1181 878 1206 l 878 368 q 861 326 878 343 q 820 309 844 309 l 123 309 q 81 326 98 309 q 64 368 64 343 m 174 445 l 607 445 l 607 510 l 174 510 l 174 445 m 174 643 l 768 643 l 768 708 l 174 708 l 174 643 m 174 841 l 768 841 l 768 906 l 174 906 l 174 841 m 174 1040 l 768 1040 l 768 1105 l 174 1105 l 174 1040 m 195 240 l 890 240 q 932 257 915 240 q 949 298 949 274 l 949 1054 l 950 1054 q 991 1037 975 1054 q 1008 996 1008 1020 l 1008 240 q 991 199 1008 216 q 950 182 975 182 l 253 182 q 212 199 229 182 q 195 240 195 216 z "},"e":{"ha":1020,"x_min":14,"x_max":1006,"o":"m 16 281 l 41 410 q 69 449 47 442 q 79 450 74 450 q 115 431 96 450 l 231 316 q 250 279 250 297 q 248 270 250 275 q 209 241 241 248 l 80 216 q 65 214 73 214 q 28 229 41 214 q 14 264 14 242 q 16 281 14 271 m 642 1074 l 873 842 l 363 332 l 269 426 l 600 757 l 556 800 l 225 469 l 132 564 l 642 1074 m 751 1183 q 808 1207 774 1207 q 867 1183 842 1207 l 982 1067 q 1006 1009 1006 1043 q 982 952 1006 975 l 949 918 l 718 1150 l 751 1183 z "},"f":{"ha":1216,"x_min":73,"x_max":1177,"o":"m 73 802 q 73 803 73 803 l 73 1112 q 92 1156 73 1138 q 136 1173 110 1173 l 568 1173 q 617 1156 594 1173 q 647 1114 640 1139 l 680 1002 l 381 1002 q 310 976 342 1002 q 271 911 278 949 l 171 357 q 230 387 205 362 q 262 445 255 411 l 263 453 l 345 898 q 358 919 347 910 q 381 928 369 928 l 1127 928 q 1166 910 1152 928 q 1177 880 1177 897 q 1176 868 1177 875 l 1074 309 q 1048 266 1070 283 q 1001 248 1027 248 l 197 248 l 136 248 q 92 267 110 248 q 73 309 73 285 l 73 802 z "},"g":{"ha":736,"x_min":34,"x_max":704,"o":"m 34 905 q 132 1141 34 1043 q 369 1240 231 1240 q 606 1141 507 1240 q 704 905 704 1043 q 684 806 704 865 q 643 707 665 747 l 532 494 l 479 594 q 463 680 463 637 q 486 780 463 730 l 490 788 q 516 849 502 811 q 530 905 530 887 q 483 1019 530 972 q 369 1066 435 1066 q 255 1019 302 1066 q 208 905 208 972 q 227 831 208 865 l 468 369 l 369 182 l 332 254 l 75 746 q 34 905 34 823 z "},"h":{"ha":1150,"x_min":39,"x_max":1111,"o":"m 43 692 q 39 711 39 702 q 65 762 39 736 l 503 1211 q 575 1240 532 1240 q 647 1211 618 1240 l 1085 762 q 1111 711 1111 737 q 1107 692 1111 701 l 1108 690 l 1107 690 q 1044 656 1092 656 q 1023 646 1032 656 q 1015 623 1015 636 l 1015 283 q 985 212 1015 241 q 913 182 955 182 l 777 182 q 787 231 787 206 l 787 601 q 748 694 787 655 q 655 732 709 732 l 495 732 q 402 694 441 732 q 363 601 363 655 l 363 406 q 376 374 363 387 q 408 361 389 361 q 439 374 426 361 q 453 406 453 387 l 453 601 q 465 631 453 618 q 495 643 477 643 l 655 643 q 685 631 673 643 q 697 601 697 618 l 697 231 q 685 201 697 213 q 655 189 673 189 l 202 189 q 154 225 172 199 q 136 283 136 251 l 136 623 q 127 646 136 636 q 106 656 118 656 q 43 690 58 656 l 42 690 l 43 692 z "},"i":{"ha":1158,"x_min":50,"x_max":1108,"o":"m 121 977 q 313 1169 191 1099 q 579 1240 435 1240 q 845 1169 723 1240 q 1038 977 967 1099 q 1108 711 1108 854 q 1038 445 1108 567 q 845 252 967 323 q 579 182 723 182 q 313 252 435 182 q 121 445 191 323 q 50 711 50 567 q 121 977 50 854 m 507 734 l 454 426 q 453 412 453 418 q 468 367 453 387 q 518 335 487 340 q 525 336 519 335 q 532 336 530 336 l 532 334 l 557 334 q 658 363 613 334 q 727 439 703 392 l 616 439 l 669 746 q 669 758 669 752 q 654 805 669 783 q 604 837 636 831 q 598 837 602 837 q 593 837 594 837 l 593 838 l 566 838 q 466 810 511 838 q 396 734 420 781 l 507 734 m 540 1022 q 538 1004 538 1013 q 555 951 538 976 q 616 913 578 920 q 634 911 625 911 q 687 928 663 911 q 726 990 719 951 l 727 997 q 728 1015 728 1006 q 711 1066 728 1043 q 650 1103 688 1096 q 633 1104 641 1104 q 578 1085 604 1104 q 540 1022 547 1061 z "},"j":{"ha":1234,"x_min":37,"x_max":1198,"o":"m 37 705 q 136 888 52 815 q 331 962 220 962 q 361 960 345 962 q 478 1099 399 1047 q 652 1150 557 1150 q 878 1057 784 1150 q 971 833 971 964 q 970 810 971 822 q 977 810 973 810 q 1131 746 1067 810 q 1198 586 1198 680 q 1133 429 1198 494 q 975 363 1067 363 l 675 363 l 739 426 q 795 563 795 483 q 739 699 795 643 q 602 755 682 755 q 465 699 522 755 l 384 617 l 301 699 q 170 755 247 754 q 165 755 168 755 q 37 705 91 755 m 113 511 l 332 292 q 384 271 354 271 q 435 292 414 271 l 654 511 q 675 562 675 532 q 654 614 675 593 q 602 635 632 635 q 551 614 572 635 l 384 446 l 216 614 q 165 635 195 635 q 113 614 134 635 q 92 562 92 593 q 113 511 92 532 z "},"k":{"ha":902,"x_min":56,"x_max":850,"o":"m 56 810 q 75 857 56 838 q 122 876 95 876 l 198 876 l 198 975 q 266 1139 198 1072 q 429 1207 334 1207 q 593 1139 525 1207 q 661 977 661 1072 l 662 975 l 662 745 q 643 699 662 718 q 598 681 624 681 q 553 699 572 681 q 534 745 534 718 l 534 807 l 534 975 q 504 1050 534 1019 q 430 1081 473 1081 q 355 1050 387 1081 q 324 975 324 1019 l 324 876 l 452 876 l 452 745 q 494 641 452 684 q 597 598 537 598 q 701 641 658 598 q 743 745 743 684 l 743 876 l 784 876 q 831 857 811 876 q 850 810 850 838 l 850 281 q 831 234 850 254 q 784 214 811 214 l 122 214 q 75 234 95 214 q 56 281 56 254 l 56 810 m 519 391 l 519 524 l 387 524 l 387 391 l 519 391 z "},"l":{"ha":1103,"x_min":22,"x_max":1080,"o":"m 90 250 q 254 182 158 182 q 417 250 349 182 l 565 397 l 546 416 q 466 449 512 449 q 386 418 420 449 l 317 349 q 254 323 291 323 q 189 349 216 323 q 163 413 163 376 q 189 476 163 450 l 451 738 q 514 764 477 764 q 516 764 515 764 q 578 738 552 764 l 677 837 q 515 905 610 905 q 351 837 418 905 l 90 576 q 22 413 22 509 q 90 250 22 317 m 425 585 l 524 684 q 587 657 551 657 q 589 657 587 657 q 652 684 626 658 l 913 944 q 939 1008 939 971 q 913 1072 939 1046 q 850 1099 886 1099 q 786 1073 812 1099 l 717 1004 q 637 972 683 972 q 557 1005 591 972 l 538 1024 l 686 1172 q 849 1240 753 1240 q 1013 1172 945 1240 q 1080 1008 1080 1104 q 1013 845 1080 913 l 752 585 q 589 517 684 517 q 425 585 493 517 z "},"m":{"ha":1204,"x_min":73,"x_max":1131,"o":"m 73 929 q 92 977 73 958 q 140 996 111 996 l 1065 996 q 1112 977 1092 996 q 1131 929 1131 958 l 1131 269 q 1112 222 1131 241 q 1065 202 1092 202 l 140 202 q 92 222 111 202 q 73 269 73 241 l 73 929 m 121 807 q 161 745 121 765 l 373 633 l 208 357 q 213 335 201 345 q 222 332 217 332 q 235 338 229 332 l 461 589 l 551 541 q 602 529 574 529 q 654 541 631 529 l 743 589 l 970 338 q 982 332 974 332 q 991 335 987 332 q 996 357 1004 345 l 831 633 l 1043 745 q 1084 807 1084 765 q 1073 844 1084 826 l 602 646 l 130 844 q 121 807 121 826 z "},"n":{"ha":1125,"x_min":41,"x_max":1101,"o":"m 47 1122 q 41 1152 41 1137 q 47 1181 41 1166 q 90 1223 60 1211 l 119 1230 q 149 1223 134 1230 q 193 1181 179 1211 l 408 665 q 482 766 463 703 q 491 820 491 793 q 476 891 491 856 l 419 1029 l 1047 929 q 1089 901 1074 924 q 1101 867 1101 885 q 1099 853 1100 860 l 1019 507 q 996 472 1013 486 q 958 458 979 458 l 441 458 l 440 458 q 438 458 439 458 l 381 458 q 378 458 380 458 q 377 458 377 458 q 333 471 353 458 q 304 506 313 484 l 47 1122 m 343 219 q 316 286 316 247 q 343 352 316 324 q 410 380 370 380 q 476 352 449 380 q 503 286 503 324 q 476 219 503 247 q 410 191 449 191 q 343 219 370 191 m 875 352 q 941 380 902 380 q 1007 352 979 380 q 1035 286 1035 324 q 1007 219 1035 247 q 941 191 979 191 q 875 219 902 191 q 848 286 848 247 q 875 352 848 324 z "},"o":{"ha":1006,"x_min":73,"x_max":933,"o":"m 73 335 l 73 1086 q 89 1125 73 1109 q 127 1141 104 1141 l 198 1141 l 351 987 l 227 987 l 227 434 l 780 434 l 780 559 l 933 406 l 933 335 q 918 296 933 312 q 879 281 902 281 l 127 281 q 89 296 104 281 q 73 335 73 312 m 429 559 l 444 544 l 780 879 l 780 757 q 802 703 780 726 q 857 680 825 680 q 911 703 888 680 q 933 757 933 726 l 933 1044 q 905 1112 933 1084 q 837 1141 876 1141 l 549 1141 q 494 1118 517 1141 q 472 1064 472 1096 q 494 1010 472 1032 q 549 987 517 987 l 671 987 l 425 741 q 390 652 390 703 q 429 559 390 597 z "},"p":{"ha":1179,"x_min":60,"x_max":1118,"o":"m 60 644 q 80 691 60 671 q 127 711 100 711 l 192 711 l 192 1173 q 212 1220 192 1200 q 258 1240 231 1240 l 920 1240 q 967 1220 947 1240 q 987 1173 987 1200 l 987 811 l 682 811 q 583 783 629 811 q 511 711 536 755 l 1052 711 q 1099 691 1079 711 q 1118 644 1118 671 l 1118 248 q 1099 201 1118 221 q 1052 182 1079 182 l 127 182 q 80 201 100 182 q 60 248 60 221 l 60 644 m 357 956 q 334 947 344 956 q 325 924 325 937 q 334 901 325 910 q 357 891 344 891 l 622 891 q 646 901 635 891 q 656 924 656 910 q 646 947 656 937 q 622 956 635 956 l 357 956 m 357 1130 q 334 1120 344 1130 q 325 1097 325 1111 q 334 1074 325 1084 q 357 1065 344 1065 l 821 1065 q 844 1074 835 1065 q 854 1097 854 1084 q 844 1120 854 1111 q 821 1130 835 1130 l 357 1130 m 909 500 q 956 481 928 481 q 1002 500 983 481 q 1022 547 1022 519 q 1002 594 1022 575 q 956 613 983 613 q 909 594 928 613 q 889 547 889 575 q 909 500 889 519 z "},"q":{"ha":1200,"x_min":71,"x_max":1129,"o":"m 71 437 q 94 496 71 472 q 150 519 116 519 l 155 519 q 214 495 189 519 q 238 437 238 471 q 214 379 238 403 q 155 355 189 355 q 96 380 121 355 q 71 437 71 404 m 71 711 q 94 768 71 745 q 150 792 116 792 l 155 792 q 214 768 189 792 q 238 711 238 745 q 214 653 238 677 q 155 629 189 629 q 96 653 121 629 q 71 711 71 677 m 71 985 q 94 1042 71 1019 q 150 1066 116 1066 l 155 1066 q 214 1042 189 1066 q 238 984 238 1017 q 214 926 238 951 q 155 902 189 902 q 96 926 121 902 q 71 985 71 951 m 417 355 q 359 379 383 355 q 334 437 334 403 q 359 495 334 471 q 417 519 383 519 l 1048 519 q 1105 495 1082 519 q 1129 437 1129 471 q 1105 379 1129 403 q 1048 355 1082 355 l 417 355 m 417 629 q 359 653 383 629 q 334 711 334 677 q 359 768 334 745 q 417 792 383 792 l 1048 792 q 1105 768 1082 792 q 1129 711 1129 745 q 1105 653 1129 677 q 1048 629 1082 629 l 417 629 m 417 1066 l 1048 1066 q 1105 1042 1082 1066 q 1129 984 1129 1017 q 1105 926 1129 951 q 1048 902 1082 902 l 417 902 q 359 926 383 902 q 334 984 334 951 q 359 1042 334 1017 q 417 1066 383 1066 z "},"r":{"ha":926,"x_min":31,"x_max":895,"o":"m 32 693 q 31 716 31 705 q 32 741 31 728 q 33 744 32 742 q 33 747 33 746 q 41 806 35 776 q 44 817 43 811 q 63 872 51 844 q 70 888 66 879 q 96 939 82 916 q 106 955 97 940 q 138 994 121 975 q 141 999 139 996 q 144 1004 143 1002 q 151 1009 146 1005 q 408 1139 257 1120 l 382 1165 q 357 1223 357 1190 q 381 1282 357 1257 q 439 1306 405 1306 q 497 1282 474 1306 l 660 1120 q 661 1119 660 1119 q 684 1061 684 1096 q 661 1002 684 1027 q 660 1002 660 1002 l 498 840 q 439 817 474 817 q 381 840 405 817 q 357 899 357 864 q 382 956 357 933 l 393 968 q 237 852 292 940 l 235 850 q 234 846 234 848 q 215 810 223 829 q 212 799 212 802 q 201 760 205 780 l 201 756 q 200 751 200 753 q 196 703 196 727 q 223 594 199 644 l 102 472 q 33 688 39 568 l 33 690 q 32 693 32 692 m 242 361 q 265 419 242 395 l 267 419 l 428 582 q 486 605 452 605 q 545 581 520 605 q 569 523 569 557 q 545 465 569 488 l 534 453 q 688 568 634 480 q 692 573 690 570 q 694 578 694 576 q 710 609 702 593 q 715 627 714 621 q 722 651 718 633 q 729 712 729 682 q 702 827 729 772 l 823 949 q 893 738 885 854 q 894 733 893 736 q 895 728 895 730 q 895 709 895 719 q 862 547 895 626 q 861 541 862 544 q 858 536 859 537 q 829 481 844 506 q 825 475 828 479 q 821 469 821 471 q 786 425 804 445 q 784 421 786 423 q 782 418 782 419 q 779 416 781 418 l 778 415 q 519 282 672 302 l 545 256 q 569 198 569 232 q 545 140 569 164 q 486 115 520 115 q 429 140 452 115 l 267 301 q 267 302 267 301 q 265 302 267 302 q 242 361 242 326 z "},"s":{"ha":1029,"x_min":19,"x_max":1010,"o":"m 20 822 q 64 838 25 838 l 180 838 l 204 838 l 387 838 l 462 1070 l 485 1145 q 515 1183 497 1183 q 545 1145 532 1183 l 568 1070 l 642 838 l 825 838 l 850 838 l 965 838 q 1010 822 1004 838 q 1010 817 1010 820 q 983 783 1010 802 l 846 685 l 720 595 l 764 463 l 823 289 q 828 260 828 271 q 821 241 828 246 q 810 238 816 238 q 775 255 797 238 l 683 323 l 383 547 q 380 548 383 548 q 372 491 372 519 q 375 456 372 474 q 413 372 383 410 l 254 255 q 219 238 233 238 q 209 241 213 238 q 201 260 201 246 q 207 289 201 271 l 273 487 l 310 595 l 184 685 l 47 783 q 19 817 19 802 q 20 822 19 820 z "},"t":{"ha":1159,"x_min":59,"x_max":1117,"o":"m 59 579 l 59 1175 q 79 1221 59 1202 q 125 1241 98 1241 l 1050 1241 q 1097 1221 1078 1241 q 1117 1175 1117 1202 l 1117 595 l 1117 506 q 1097 459 1117 479 q 1050 439 1078 439 l 646 439 l 417 210 q 363 180 387 180 q 351 182 357 180 q 323 248 323 194 l 323 636 q 228 564 265 614 q 191 450 191 513 l 191 439 l 125 439 q 79 459 98 439 q 59 506 59 479 l 59 579 m 768 852 l 768 918 l 191 918 l 191 852 l 768 852 m 985 983 l 985 1050 l 191 1050 l 191 983 l 985 983 z "},"u":{"ha":1130,"x_min":35,"x_max":1093,"o":"m 38 304 q 45 330 41 313 q 53 365 49 346 l 118 605 q 151 658 125 635 q 208 685 178 681 l 456 685 l 456 728 q 370 884 391 773 q 354 905 361 892 q 340 961 340 936 q 355 1008 340 987 q 358 1050 358 1030 q 351 1103 358 1081 q 349 1116 349 1109 q 372 1161 349 1139 q 463 1198 401 1190 q 483 1208 468 1202 q 532 1224 498 1215 q 578 1230 555 1230 q 598 1229 588 1230 q 689 1212 635 1226 q 755 1199 739 1199 q 758 1199 757 1199 q 759 1199 759 1199 q 777 1138 774 1199 q 778 1116 778 1127 q 768 1013 778 1064 q 787 970 784 996 q 788 956 788 963 q 781 922 788 939 q 760 887 770 901 q 673 728 739 773 l 673 685 l 921 685 q 977 658 951 681 q 1010 605 1004 635 l 1076 365 q 1084 330 1080 347 q 1091 304 1089 312 q 1093 296 1093 296 l 1029 262 l 994 247 q 862 214 958 232 q 647 191 766 195 l 655 229 l 576 534 l 633 612 l 617 635 l 564 610 l 513 635 l 495 612 l 552 534 l 473 229 l 481 191 q 263 215 362 195 q 138 245 164 235 q 99 262 111 255 q 35 296 64 279 l 38 304 z "},"v":{"ha":1204,"x_min":45,"x_max":1160,"o":"m 45 711 l 49 720 q 260 983 107 883 q 602 1084 414 1084 q 944 983 791 1084 q 1156 720 1097 883 l 1160 711 l 1156 701 q 944 438 1097 538 q 602 338 791 338 q 260 438 414 338 q 49 701 107 538 l 45 711 m 210 711 q 369 549 263 609 q 602 490 475 490 q 836 549 730 490 q 994 711 941 609 q 836 872 941 812 q 602 932 730 932 q 369 872 475 932 q 210 711 263 812 m 602 928 q 674 914 637 928 q 620 804 629 868 q 617 772 617 788 q 637 686 617 726 q 640 688 637 686 l 783 830 q 819 711 819 776 q 755 557 819 621 q 602 494 692 494 q 449 557 513 494 q 385 711 385 621 q 449 864 385 800 q 602 928 513 928 z "},"w":{"ha":1051,"x_min":73,"x_max":1001,"o":"m 73 248 l 137 248 l 160 248 l 393 248 q 427 262 412 248 q 441 295 441 275 q 427 328 441 315 q 393 342 412 342 l 233 342 l 446 555 q 460 587 460 568 q 446 621 460 606 q 413 635 433 635 q 380 621 393 635 l 167 408 l 167 567 q 153 601 167 587 q 120 614 140 614 q 87 601 100 614 q 73 567 73 587 l 73 334 l 73 248 m 73 854 l 73 1088 l 73 1173 l 160 1173 l 393 1173 q 427 1160 412 1173 q 441 1126 441 1146 q 427 1093 441 1107 q 393 1080 412 1080 l 233 1080 l 410 905 q 423 871 423 891 q 410 838 423 852 q 376 825 396 825 q 343 838 357 825 l 167 1015 l 167 854 q 153 821 167 834 q 121 807 140 807 q 87 821 102 807 q 73 854 73 834 m 705 814 l 907 1016 l 907 854 q 921 821 907 834 q 954 807 935 807 q 987 821 974 807 q 1001 854 1001 834 l 1001 1088 l 1001 1109 l 1001 1173 l 914 1173 l 681 1173 q 648 1160 662 1173 q 635 1126 635 1146 q 648 1093 635 1107 q 681 1080 662 1080 l 840 1080 l 640 880 q 625 848 625 867 q 640 814 625 829 q 673 800 654 800 q 705 814 692 800 m 681 248 l 914 248 l 937 248 l 1001 248 l 1001 312 l 1001 334 l 1001 567 q 987 601 1001 587 q 954 614 974 614 q 921 601 935 614 q 907 567 907 587 l 907 407 l 718 597 q 684 610 704 610 q 651 597 665 610 q 637 564 637 583 q 651 530 637 544 l 840 342 l 681 342 q 648 328 662 342 q 635 295 635 315 q 648 262 635 275 q 681 248 662 248 z "},"x":{"ha":1132,"x_min":70,"x_max":1063,"o":"m 269 250 q 187 214 235 214 q 104 249 139 214 q 70 332 70 283 q 104 414 70 380 l 401 711 l 104 1008 q 70 1090 70 1042 q 104 1173 70 1138 q 187 1207 139 1207 q 269 1173 235 1207 l 664 779 q 708 885 702 825 q 709 908 709 897 q 688 997 709 956 l 863 1173 q 945 1207 897 1207 q 1028 1173 994 1207 q 1063 1090 1063 1138 q 1029 1008 1063 1042 l 732 711 l 1029 414 q 1063 332 1063 380 q 1028 249 1063 283 q 945 214 994 214 q 863 250 897 214 l 566 545 l 269 250 l 269 250 z "},"y":{"ha":1137,"x_min":36,"x_max":1095,"o":"m 36 327 q 64 258 36 286 q 132 229 93 229 l 212 229 l 212 259 q 247 385 212 327 q 340 475 281 442 l 340 814 l 132 814 q 64 785 93 814 q 36 718 36 757 l 36 327 m 149 609 q 130 657 130 629 q 149 705 130 685 q 197 726 169 726 q 245 705 226 726 q 265 657 265 685 q 245 609 265 629 q 197 589 226 589 q 149 609 169 589 m 406 411 l 406 690 q 462 819 406 766 l 462 821 q 541 954 524 875 l 595 1192 l 659 1177 q 755 1110 721 1164 q 779 1029 779 1072 q 775 994 779 1012 l 748 871 l 947 872 q 1063 820 1021 872 q 1095 734 1095 782 q 1090 696 1095 715 l 1030 406 q 950 281 1014 332 q 813 229 886 229 l 587 229 q 459 283 512 231 q 406 411 406 336 z "},"z":{"ha":1341,"x_min":56,"x_max":1303,"o":"m 56 327 q 84 258 56 288 q 152 229 113 229 l 231 229 l 231 259 q 266 385 231 327 q 359 475 301 442 l 359 815 l 152 815 q 84 787 113 815 q 56 718 56 758 l 56 327 m 168 610 q 148 658 148 629 q 168 706 148 686 q 216 726 189 726 q 264 706 244 726 q 285 658 285 686 q 264 610 285 629 q 216 590 244 590 q 168 610 189 590 m 426 411 l 426 469 l 426 692 l 426 749 q 490 904 426 840 q 646 968 555 968 l 650 968 q 656 970 655 970 l 693 968 l 718 968 q 721 968 719 968 q 724 968 723 968 l 867 968 q 894 956 882 968 q 905 929 905 945 l 905 872 l 1184 872 q 1268 837 1233 872 q 1303 752 1303 802 q 1268 667 1303 703 q 1184 632 1233 632 l 1097 632 l 1050 406 q 970 281 1034 334 q 833 229 906 229 l 606 231 q 479 283 532 231 q 426 411 426 336 z "},"­":{"ha":1062,"x_min":68,"x_max":994,"o":"m 162 806 l 900 806 q 966 778 939 806 q 994 711 994 750 q 966 644 994 671 q 900 616 938 616 l 162 616 q 96 644 124 616 q 68 711 68 671 q 96 778 68 750 q 162 806 124 806 z "}," ":{"ha":653,"x_min":0,"x_max":0,"o":""}," ":{"ha":1306,"x_min":0,"x_max":0,"o":""}," ":{"ha":653,"x_min":0,"x_max":0,"o":""}," ":{"ha":1306,"x_min":0,"x_max":0,"o":""}," ":{"ha":435,"x_min":0,"x_max":0,"o":""}," ":{"ha":326,"x_min":0,"x_max":0,"o":""}," ":{"ha":218,"x_min":0,"x_max":0,"o":""}," ":{"ha":218,"x_min":0,"x_max":0,"o":""}," ":{"ha":163,"x_min":0,"x_max":0,"o":""}," ":{"ha":261,"x_min":0,"x_max":0,"o":""}," ":{"ha":73,"x_min":0,"x_max":0,"o":""},"‐":{"ha":1062,"x_min":68,"x_max":994,"o":"m 162 806 l 900 806 q 966 778 939 806 q 994 711 994 750 q 966 644 994 671 q 900 616 938 616 l 162 616 q 96 644 124 616 q 68 711 68 671 q 96 778 68 750 q 162 806 124 806 z "},"‑":{"ha":1062,"x_min":68,"x_max":994,"o":"m 162 806 l 900 806 q 966 778 939 806 q 994 711 994 750 q 966 644 994 671 q 900 616 938 616 l 162 616 q 96 644 124 616 q 68 711 68 671 q 96 778 68 750 q 162 806 124 806 z "},"‒":{"ha":1062,"x_min":68,"x_max":994,"o":"m 162 806 l 900 806 q 966 778 939 806 q 994 711 994 750 q 966 644 994 671 q 900 616 938 616 l 162 616 q 96 644 124 616 q 68 711 68 671 q 96 778 68 750 q 162 806 124 806 z "},"–":{"ha":831,"x_min":68,"x_max":763,"o":"m 139 806 l 692 806 q 743 778 722 806 q 763 711 763 750 q 742 644 763 671 q 692 616 721 616 l 139 616 q 90 644 111 616 q 68 711 68 671 q 90 778 68 750 q 139 806 111 806 z "},"—":{"ha":1526,"x_min":68,"x_max":1457,"o":"m 209 806 l 1317 806 q 1417 778 1376 806 q 1457 711 1457 750 q 1416 644 1457 671 q 1317 616 1374 616 l 209 616 q 110 644 152 616 q 68 711 68 671 q 110 778 68 750 q 209 806 152 806 z "}," ":{"ha":261,"x_min":0,"x_max":0,"o":""}," ":{"ha":326,"x_min":0,"x_max":0,"o":""},"":{"ha":1354,"x_min":73,"x_max":1280,"o":"m 73 0 l 73 1207 l 1280 1207 l 1280 0 l 73 0 z "}}}
